<svg xmlns="http://www.w3.org/2000/svg">
<defs>
<font id="GoboldExtra2-Italic" horiz-adv-x="1033" >
  <font-face 
    font-family="Gobold Extra2"
    font-weight="400"
    font-style="italic"
    font-stretch="normal"
    units-per-em="2048"
    panose-1="2 0 5 0 0 0 0 9 0 0"
    ascent="1638"
    descent="-410"
    x-height="1961"
    cap-height="1962"
    bbox="-283 -360 2527 2295"
    underline-thickness="150"
    underline-position="-142"
    slope="-12"
    unicode-range="U+001D-U+F002"
  />
<missing-glyph horiz-adv-x="1934" 
d="M1477 1729q-160 -39 -277 -144q-40 -36 -111 -117q-79 -91 -112 -124q-101 -99 -160 -139q-96 -66 -186 -66q-73 0 -116 37q-44 38 -44 104v11q2 18 6 36q14 65 57 121q60 77 142 91q21 4 38 4q27 0 46 -9q30 -14 30 -50q0 -8 -2 -18q-9 13 -25 13q-13 0 -26 -10
q-14 -12 -17 -26q-1 -6 -1 -12q0 -23 29 -23h2q37 0 66 41q15 22 19 44q3 11 3 21q0 11 -3 22q-7 44 -43 65q-39 23 -102 23q-15 0 -31 -1q-135 -11 -237 -110l46 216h1009zM334 1100q61 -80 192 -80q18 0 38 2q109 9 286 154l136 119q79 71 109 94q79 61 147 61
q37 0 71 -17q98 -50 210 -50q74 0 154 22q157 44 310 163q-58 -199 -224 -369q-32 -32 -337 -290h-66q-50 0 -74 39l-129 -106h192q-289 -260 -373 -462q-23 -56 -34 -105q-9 -41 -9 -78q0 -34 8 -64q25 -99 136 -137h-239l180 848l50 24l9 41h-784zM566 842q93 0 124 -39
q19 -24 19 -69q0 -28 -7 -63l-144 -675h-459l180 846h287zM808 844h44l-180 -848h-44zM1418 -4q262 57 458 203l-43 -203h-415zM1880 217q-178 -89 -321 -106q-30 -3 -57 -3q-99 0 -145 47q-33 33 -33 86q0 20 5 42q7 31 22 67q63 146 265 349q95 95 138 143h186l-12 -58h73
zM1813 909q166 201 215 433q11 52 17 106q13 133 13 155l-1 4q21 62 139 96l-169 -794h-214zM1109 1263q-89 0 -160 -52q-61 -46 -88 -114q-6 -17 -10 -33q-3 -15 -3 -29q0 -27 12 -48q22 -42 81 -42q10 0 20 1q74 8 109 74q10 18 13 33q2 9 2 17q0 33 -29 58q-25 21 -25 46
q0 5 1 11t5 13q16 38 69 50z" />
    <glyph glyph-name=".notdef" horiz-adv-x="1934" 
d="M1477 1729q-160 -39 -277 -144q-40 -36 -111 -117q-79 -91 -112 -124q-101 -99 -160 -139q-96 -66 -186 -66q-73 0 -116 37q-44 38 -44 104v11q2 18 6 36q14 65 57 121q60 77 142 91q21 4 38 4q27 0 46 -9q30 -14 30 -50q0 -8 -2 -18q-9 13 -25 13q-13 0 -26 -10
q-14 -12 -17 -26q-1 -6 -1 -12q0 -23 29 -23h2q37 0 66 41q15 22 19 44q3 11 3 21q0 11 -3 22q-7 44 -43 65q-39 23 -102 23q-15 0 -31 -1q-135 -11 -237 -110l46 216h1009zM334 1100q61 -80 192 -80q18 0 38 2q109 9 286 154l136 119q79 71 109 94q79 61 147 61
q37 0 71 -17q98 -50 210 -50q74 0 154 22q157 44 310 163q-58 -199 -224 -369q-32 -32 -337 -290h-66q-50 0 -74 39l-129 -106h192q-289 -260 -373 -462q-23 -56 -34 -105q-9 -41 -9 -78q0 -34 8 -64q25 -99 136 -137h-239l180 848l50 24l9 41h-784zM566 842q93 0 124 -39
q19 -24 19 -69q0 -28 -7 -63l-144 -675h-459l180 846h287zM808 844h44l-180 -848h-44zM1418 -4q262 57 458 203l-43 -203h-415zM1880 217q-178 -89 -321 -106q-30 -3 -57 -3q-99 0 -145 47q-33 33 -33 86q0 20 5 42q7 31 22 67q63 146 265 349q95 95 138 143h186l-12 -58h73
zM1813 909q166 201 215 433q11 52 17 106q13 133 13 155l-1 4q21 62 139 96l-169 -794h-214zM1109 1263q-89 0 -160 -52q-61 -46 -88 -114q-6 -17 -10 -33q-3 -15 -3 -29q0 -27 12 -48q22 -42 81 -42q10 0 20 1q74 8 109 74q10 18 13 33q2 9 2 17q0 33 -29 58q-25 21 -25 46
q0 5 1 11t5 13q16 38 69 50z" />
    <glyph glyph-name=".null" horiz-adv-x="0" 
 />
    <glyph glyph-name=".null" horiz-adv-x="0" 
 />
    <glyph glyph-name="nonmarkingreturn" horiz-adv-x="508" 
 />
    <glyph glyph-name="space" unicode=" " horiz-adv-x="508" 
 />
    <glyph glyph-name="space" unicode="&#xa0;" horiz-adv-x="508" 
 />
    <glyph glyph-name="exclam" unicode="!" horiz-adv-x="565" 
d="M862 1962l-325 -1432h-283l283 1432h325zM189 325h325l-69 -325h-325z" />
    <glyph glyph-name="quotedbl" unicode="&#x22;" horiz-adv-x="968" 
d="M969 1963h296l-172 -652h-228zM537 1963h296l-172 -652h-228z" />
    <glyph glyph-name="numbersign" unicode="#" horiz-adv-x="1349" 
d="M472 883l105 257h-213l33 153h244l275 670h237l-275 -670h245l275 670h237l-275 -670h184l-33 -153h-215l-105 -257h224l-33 -153h-255l-300 -730h-237l300 730h-245l-300 -730h-237l300 730h-173l33 153h204zM814 1140l-105 -257h245l105 257h-245z" />
    <glyph glyph-name="dollar" unicode="$" horiz-adv-x="1053" 
d="M463 1613q76 358 376 404l37 176h232l-37 -176q221 -36 221 -266q0 -62 -16 -138l-56 -264h-284l56 264q5 25 5 45q0 87 -99 88h-2q-122 0 -150 -133l-38 -178q-3 -15 -3 -30q0 -123 200 -291q180 -151 180 -349q0 -51 -12 -104l-52 -248q-77 -359 -377 -404l-51 -239
h-232l51 239q-220 36 -220 265q0 63 16 139l56 263h283l-56 -263q-5 -25 -5 -45q0 -88 100 -88q123 0 151 133l47 223q4 17 4 35q0 131 -197 297q-179 151 -179 353q0 52 12 108z" />
    <glyph glyph-name="percent" unicode="%" horiz-adv-x="1697" 
d="M831 1079q-51 -242 -289 -242q-197 0 -197 164q0 35 9 78l150 704q51 242 290 242q196 0 196 -164q0 -35 -9 -78zM1624 243q-52 -242 -291 -242h-2q-193 0 -193 163q0 35 9 79l149 704q52 242 290 242q196 0 196 -163q0 -36 -9 -79zM1607 947q3 15 3 27q0 51 -58 51h-2
q-71 0 -88 -78l-149 -704q-3 -15 -3 -27q0 -51 58 -51q73 0 90 78zM1698 1963l-1139 -1963h-176l1140 1963h175zM815 1783q3 15 3 27q0 51 -58 51h-2q-71 0 -88 -78l-150 -704q-3 -14 -3 -26q0 -52 60 -52q72 0 88 78z" />
    <glyph glyph-name="ampersand" unicode="&#x26;" horiz-adv-x="1183" 
d="M583 279q127 1 155 134l98 460h-105q-46 -1 -67 -9q-84 -30 -104 -124l-69 -327q-6 -27 -6 -48q0 -86 93 -86h5zM895 1152l28 134h283l-28 -134h180l-59 -279h-180l-98 -460q-88 -412 -498 -412q-331 0 -331 278q0 60 16 134l69 327q41 193 213 273q-106 62 -106 191
q0 38 9 82l63 295q88 413 493 413q336 0 336 -279q0 -61 -16 -134l-18 -84h-283l18 84q5 22 5 40q0 83 -97 95q-129 -12 -155 -135l-63 -295q-4 -21 -4 -38q0 -63 55 -87q18 -8 63 -9h105z" />
    <glyph glyph-name="quotesingle" unicode="'" horiz-adv-x="536" 
d="M537 1963h296l-172 -652h-228z" />
    <glyph glyph-name="parenleft" unicode="(" horiz-adv-x="544" 
d="M461 -247q-321 4 -321 279q0 61 15 134l347 1632q87 407 482 412l-50 -232q-111 -3 -139 -134l-367 -1725q-5 -26 -5 -46q0 -85 88 -87z" />
    <glyph glyph-name="parenright" unicode=")" horiz-adv-x="544" 
d="M27 -14q112 3 139 133l367 1725q6 26 6 48q0 84 -89 86l50 232q322 -4 322 -278q0 -60 -16 -134l-347 -1632q-86 -408 -482 -413z" />
    <glyph glyph-name="asterisk" unicode="*" horiz-adv-x="1012" 
d="M887 1661q153 133 220 161q37 16 65 16q67 0 78 -95q2 -16 2 -31q0 -18 -3 -34q-18 -81 -121 -96q-16 -2 -37 -2q-70 0 -196 26q150 -78 184 -127q24 -32 24 -63q0 -8 -2 -16q-11 -51 -85 -98q-58 -37 -98 -37q-55 0 -75 71q-9 32 -9 93q0 57 8 141q-62 -182 -107 -240
q-49 -64 -103 -64q-38 0 -80 34q-48 41 -48 83q0 7 2 15q9 41 62 84q59 49 232 120q-136 -25 -206 -25q-27 0 -44 4q-76 15 -76 74q0 11 3 24q6 27 24 61q50 97 118 97q30 0 64 -19q55 -32 145 -159q-49 144 -49 212q0 7 1 14q1 12 4 23q22 104 148 105h4q107 0 107 -73
q0 -12 -3 -26q-4 -16 -10 -34q-27 -69 -143 -219z" />
    <glyph glyph-name="plus" unicode="+" horiz-adv-x="1047" 
d="M592 865h-288l49 233h288l61 287h232l-61 -287h287l-49 -233h-287l-61 -287h-232z" />
    <glyph glyph-name="comma" unicode="," horiz-adv-x="591" 
d="M189 325h351l-61 -287l-186 -365h-183l128 327h-118z" />
    <glyph glyph-name="hyphen" unicode="-" horiz-adv-x="786" 
d="M229 841l49 233h686l-49 -233h-686z" />
    <glyph glyph-name="hyphen" unicode="&#xad;" horiz-adv-x="786" 
d="M229 841l49 233h686l-49 -233h-686z" />
    <glyph glyph-name="period" unicode="." horiz-adv-x="565" 
d="M189 325h325l-69 -325h-325z" />
    <glyph glyph-name="slash" unicode="/" horiz-adv-x="748" 
d="M1105 1963l-808 -1963h-237l808 1963h237z" />
    <glyph glyph-name="zero" unicode="0" horiz-adv-x="1053" 
d="M1014 381q-88 -412 -495 -412q-334 0 -334 278q0 61 16 134l255 1200q88 413 494 413q335 0 335 -279q0 -61 -16 -134zM986 1581q5 25 5 45q0 88 -100 88h-2q-122 0 -150 -133l-255 -1200q-5 -25 -5 -45q0 -88 100 -88q124 0 152 133z" />
    <glyph glyph-name="one" unicode="1" horiz-adv-x="1073" 
d="M490 0l356 1673l-276 -50l57 269l569 100l-423 -1992h-283z" />
    <glyph glyph-name="two" unicode="2" horiz-adv-x="1073" 
d="M236 501q57 265 361 454q305 189 334 321l65 305q5 25 5 45q0 88 -99 88h-2q-123 0 -151 -133l-56 -263h-283l56 263q88 413 494 413q335 0 335 -279q0 -61 -16 -134l-66 -312q-58 -270 -363 -460q-305 -189 -336 -332l-42 -198h530l-59 -279h-813z" />
    <glyph glyph-name="three" unicode="3" horiz-adv-x="1073" 
d="M996 1581q5 24 5 44q0 88 -100 89h-2q-122 0 -150 -133l-56 -263h-283l56 263q88 412 494 412q335 0 335 -279q0 -60 -16 -133l-60 -281q-53 -253 -245 -333q118 -60 118 -215q0 -54 -14 -118l-54 -253q-88 -412 -495 -412q-334 0 -334 278q0 61 16 134l56 263h283
l-56 -263q-5 -25 -5 -45q0 -88 99 -88h2q123 1 151 133l54 253q8 37 8 68q0 129 -145 129h-53l59 279h75q157 0 198 192z" />
    <glyph glyph-name="four" unicode="4" 
d="M1286 1962l-272 -1282h109l-60 -279h-109l-85 -401h-283l85 401h-534l53 248l735 1313h361zM456 680h275l176 829z" />
    <glyph glyph-name="five" unicode="5" horiz-adv-x="1073" 
d="M859 938q6 29 6 53q0 91 -96 91q-126 -5 -162 -167h-283l324 1047h712l-59 -279h-479l-130 -422q90 81 248 81q148 0 200 -119q23 -44 23 -117q0 -71 -21 -168l-118 -557q-88 -412 -495 -412q-334 0 -334 278q0 61 16 134l49 232h283l-49 -232q-5 -25 -5 -45
q0 -88 99 -88h2q123 1 151 133z" />
    <glyph glyph-name="six" unicode="6" horiz-adv-x="1073" 
d="M648 1104q94 71 210 71q21 0 42 -2q133 -14 193 -97q34 -48 34 -139q0 -70 -20 -166l-83 -390q-88 -412 -495 -412q-334 0 -334 278q0 61 16 134l255 1200q88 413 494 413q335 0 335 -279q0 -61 -16 -134l-56 -263h-283l56 263q5 25 5 45q0 88 -100 88h-2
q-122 0 -150 -133zM824 771q8 37 8 64q0 47 -26 59q-22 11 -75 11q-13 0 -27 -1q-100 -4 -127 -133l-83 -390q-5 -25 -5 -45q0 -88 100 -88q124 0 152 133z" />
    <glyph glyph-name="seven" unicode="7" horiz-adv-x="1073" 
d="M479 1683l59 279h837l-43 -201l-770 -1761h-290l736 1683h-529z" />
    <glyph glyph-name="eight" unicode="8" horiz-adv-x="1074" 
d="M961 1993q335 0 335 -279q0 -60 -16 -133l-62 -291q-51 -243 -223 -323q100 -58 100 -202q0 -54 -14 -121l-56 -263q-88 -412 -495 -412q-335 0 -335 279q0 60 16 133l56 263q52 243 224 323q-100 58 -100 206q0 57 15 127l60 281q88 412 495 412zM591 248q123 1 151 133
l67 313q5 26 5 46q0 91 -102 91q-122 0 -151 -137l-67 -313q-5 -24 -5 -44q0 -88 100 -89h2zM770 1110q127 0 155 132l72 339q5 24 5 44q0 88 -102 89q-123 -1 -151 -133l-72 -339q-5 -25 -5 -45q0 -87 98 -87z" />
    <glyph glyph-name="nine" unicode="9" horiz-adv-x="1073" 
d="M843 859q-97 -72 -214 -72q-19 0 -39 2q-133 14 -193 97q-34 49 -34 140q0 70 20 165l83 390q88 412 495 413q334 0 334 -279q0 -60 -16 -134l-255 -1200q-88 -412 -495 -412q-334 0 -334 278q0 61 16 134l56 264h283l-56 -264q-5 -24 -5 -44q0 -88 100 -89h2
q122 0 150 133zM666 1191q-8 -37 -8 -63q0 -48 26 -60q21 -10 73 -10q13 0 28 1q101 3 128 132l83 390q5 25 5 45q0 88 -100 88q-124 0 -152 -133z" />
    <glyph glyph-name="colon" unicode=":" horiz-adv-x="564" 
d="M402 1329h324l-68 -324h-324zM189 325h324l-69 -325h-324z" />
    <glyph glyph-name="semicolon" unicode=";" horiz-adv-x="591" 
d="M189 325h351l-61 -287l-186 -365h-183l128 327h-118zM402 1329h325l-68 -324h-325z" />
    <glyph glyph-name="semicolon" unicode="&#x37e;" horiz-adv-x="591" 
d="M189 325h351l-61 -287l-186 -365h-183l128 327h-118zM402 1329h325l-68 -324h-325z" />
    <glyph glyph-name="less" unicode="&#x3c;" horiz-adv-x="1047" 
d="M358 1120l903 452l-58 -275l-655 -320l521 -311l-59 -274l-714 437z" />
    <glyph glyph-name="equal" unicode="=" horiz-adv-x="1047" 
d="M353 1096l49 233h807l-49 -233h-807zM255 633l49 232h807l-49 -232h-807z" />
    <glyph glyph-name="greater" unicode="&#x3e;" horiz-adv-x="1047" 
d="M1103 829l-900 -437l59 274l653 311l-519 320l58 275l711 -452z" />
    <glyph glyph-name="question" unicode="?" horiz-adv-x="1053" 
d="M305 325h325l-69 -325h-325zM1227 1384q-53 -249 -294 -447t-272 -345l-10 -45h-283l15 69q52 245 293 442t270 333l40 190q5 25 5 45q0 88 -99 88h-2q-123 0 -151 -133l-56 -263h-283l56 263q88 413 495 413q334 0 334 -279q0 -60 -16 -134z" />
    <glyph glyph-name="at" unicode="@" horiz-adv-x="1483" 
d="M1629 1303l-17 -79q-58 -272 -325 -272h-109l-73 -344q-58 -272 -326 -272q-219 0 -219 184q0 39 10 88l55 257q57 271 324 271h82l56 262q4 17 4 30q0 57 -66 57h-2q-80 0 -99 -87l-15 -70h-186l15 70q58 271 325 271q220 0 220 -183q0 -40 -10 -88l-56 -262h109
q81 0 100 88l40 186q15 70 15 128q0 284 -352 284q-425 0 -515 -425l-170 -801q-15 -71 -15 -129q0 -283 352 -283q424 0 514 424l9 43h187l-9 -43q-129 -607 -740 -607q-507 0 -507 408q0 85 22 187l170 801q129 608 741 608q507 0 507 -409q0 -84 -22 -186l-23 -107h-1z
M895 953q-81 0 -100 -88l-55 -257q-3 -16 -3 -29q0 -59 66 -59q82 0 100 88l73 344z" />
    <glyph glyph-name="A" unicode="A" horiz-adv-x="1051" 
d="M782 670l79 912l-309 -912h230zM461 400l-136 -400h-285l709 1962h388l-126 -1962h-286l34 400h-298z" />
    <glyph glyph-name="B" unicode="B" horiz-adv-x="1043" 
d="M547 1962h436q306 -1 306 -272q0 -63 -17 -141l-125 -591q-41 -193 -213 -273q106 -62 106 -191q0 -38 -9 -82q-88 -411 -483 -412h-418zM771 1683l-183 -858h89q59 0 83 8q84 31 104 125l125 591q6 26 6 46q0 88 -100 88h-124zM529 545l-57 -266h124q123 0 152 133
q4 21 4 38q0 63 -55 86q-20 9 -79 9h-89z" />
    <glyph glyph-name="C" unicode="C" horiz-adv-x="1023" 
d="M1004 381q-88 -412 -495 -413q-334 0 -334 279q0 60 16 134l255 1200q88 412 494 412q335 0 335 -279q0 -60 -16 -133l-102 -480h-283l102 480q5 24 5 44q0 88 -100 89h-2q-122 0 -150 -133l-255 -1200q-5 -25 -5 -45q0 -88 100 -88q124 0 152 133l68 319h283z" />
    <glyph glyph-name="D" unicode="D" horiz-adv-x="1053" 
d="M547 1962h436q306 -1 306 -272q0 -63 -17 -141l-241 -1137q-88 -411 -483 -412h-418zM771 1683l-299 -1404h124q123 0 152 133l241 1137q6 26 6 46q0 88 -100 88h-124z" />
    <glyph glyph-name="E" unicode="E" horiz-adv-x="944" 
d="M547 1962h734l-59 -279h-451l-188 -883h388l-59 -280h-388l-52 -241h451l-59 -279h-734z" />
    <glyph glyph-name="F" unicode="F" horiz-adv-x="924" 
d="M547 1962h734l-59 -279h-451l-188 -884h388l-60 -280h-388l-110 -519h-283z" />
    <glyph glyph-name="G" unicode="G" 
d="M1004 381q-88 -412 -495 -413q-334 0 -334 279q0 60 16 134l255 1200q88 412 494 412q335 0 335 -279q0 -60 -16 -133l-102 -481h-283l102 481q5 24 5 44q0 88 -100 89h-2q-122 0 -150 -133l-255 -1200q-5 -25 -5 -45q0 -88 100 -88q124 0 152 133l30 139h-123l59 280
h406z" />
    <glyph glyph-name="H" unicode="H" horiz-adv-x="1073" 
d="M547 1962h283l-247 -1163h247l247 1163h283l-417 -1962h-283l110 519h-247l-110 -519h-283z" />
    <glyph glyph-name="I" unicode="I" horiz-adv-x="553" 
d="M552 1962h283l-417 -1962h-283z" />
    <glyph glyph-name="J" unicode="J" horiz-adv-x="973" 
d="M200 800h283l-89 -419q-5 -24 -5 -44q0 -89 101 -89q123 0 151 133l336 1581h283l-336 -1581q-88 -413 -494 -413q-335 1 -335 279q0 61 16 134z" />
    <glyph glyph-name="K" unicode="K" horiz-adv-x="1057" 
d="M800 648l217 -648h-303l-188 530l-113 -530h-283l417 1962h283l-260 -1225l561 1225h283z" />
    <glyph glyph-name="L" unicode="L" horiz-adv-x="904" 
d="M130 0l417 1962h283l-358 -1683h451l-59 -279h-734z" />
    <glyph glyph-name="M" unicode="M" horiz-adv-x="1306" 
d="M856 955l-159 426l-294 -1382h-273l417 1962h223l192 -506l408 506h223l-417 -1962h-273l294 1382z" />
    <glyph glyph-name="N" unicode="N" horiz-adv-x="1073" 
d="M547 1962h233l192 -540l115 540h273l-417 -1962h-273l194 912l-165 480l-296 -1392h-273z" />
    <glyph glyph-name="O" unicode="O" 
d="M1004 381q-88 -412 -495 -413q-334 0 -334 279q0 60 16 134l255 1200q88 412 494 412q335 0 335 -279q0 -60 -16 -133zM976 1581q5 24 5 44q0 88 -100 89h-2q-122 0 -150 -133l-255 -1200q-5 -25 -5 -45q0 -88 100 -88q124 0 152 133z" />
    <glyph glyph-name="P" unicode="P" horiz-adv-x="999" 
d="M547 1962h412q306 -1 306 -272q0 -63 -17 -141l-131 -616q-64 -304 -354 -392q-69 -21 -193 -21h-46l-111 -520h-283zM771 1683l-188 -883h65q59 0 83 8q83 31 103 125l131 616q6 26 6 46q0 88 -100 88h-100z" />
    <glyph glyph-name="Q" unicode="Q" 
d="M1004 381q-78 -368 -397 -407v-6q0 -78 292 -80l-50 -236q-410 1 -410 246q0 34 8 73q-272 20 -272 273q0 62 16 137l255 1200q88 412 494 412q335 0 335 -279q0 -60 -16 -133zM976 1581q5 24 5 44q0 88 -100 89h-2q-122 0 -150 -133l-255 -1200q-5 -25 -5 -45
q0 -88 100 -88q124 0 152 133z" />
    <glyph glyph-name="R" unicode="R" horiz-adv-x="1044" 
d="M771 1684l-190 -894h65q59 0 83 8q83 31 103 125l133 627q6 26 6 46q0 88 -100 88h-100zM842 571l172 -571h-310l-141 520h-39l-111 -520h-283l417 1962h412q306 -1 306 -272q0 -63 -17 -141l-131 -616q-55 -260 -275 -362z" />
    <glyph glyph-name="S" unicode="S" 
d="M446 1581q88 412 494 412q335 0 335 -279q0 -60 -16 -133l-102 -480h-283l102 480q5 24 5 44q0 88 -100 89h-2q-122 0 -150 -133l-71 -332q-9 -40 -9 -79q0 -180 191 -312q177 -149 177 -359q0 -57 -13 -118q-88 -413 -494 -413q-335 1 -335 279q0 61 16 134l29 138h283
l-29 -138q-5 -24 -5 -44q0 -89 101 -89q123 0 151 133q4 17 4 34q0 130 -198 298q-170 143 -170 374q0 73 17 156z" />
    <glyph glyph-name="T" unicode="T" horiz-adv-x="913" 
d="M1280 1962l-59 -279h-265l-358 -1683h-283l358 1683h-265l59 279h813z" />
    <glyph glyph-name="U" unicode="U" horiz-adv-x="1053" 
d="M1014 381q-88 -412 -495 -413q-334 0 -334 279q0 60 16 134l336 1581h283l-336 -1581q-5 -25 -5 -45q0 -88 100 -88q124 0 152 133l336 1581h283z" />
    <glyph glyph-name="V" unicode="V" horiz-adv-x="1051" 
d="M720 0h-388l125 1962h286l-144 -1612l543 1612h286z" />
    <glyph glyph-name="W" unicode="W" horiz-adv-x="1396" 
d="M799 476l-299 -476h-248l215 1962h285l-181 -1462l350 526l113 -536l443 1472h286l-618 -1962h-258z" />
    <glyph glyph-name="X" unicode="X" horiz-adv-x="987" 
d="M649 728l460 1233h285l-510 -1311l93 -651h-305l-49 608l-308 -608h-305l369 651l48 1311h285z" />
    <glyph glyph-name="Y" unicode="Y" horiz-adv-x="1066" 
d="M757 1962l-22 -1014l408 1014h300l-658 -1446l-110 -516h-283l110 516l-45 1446h300z" />
    <glyph glyph-name="Z" unicode="Z" horiz-adv-x="880" 
d="M1164 1792l-706 -1513h401l-59 -279h-720l36 170l706 1513h-371l59 279h690z" />
    <glyph glyph-name="bracketleft" unicode="[" horiz-adv-x="547" 
d="M987 2210l-50 -232h-154l-423 -1992h154l-50 -233h-387l523 2457h387z" />
    <glyph glyph-name="backslash" unicode="\" horiz-adv-x="748" 
d="M714 1963l-26 -1963h-237l26 1963h237z" />
    <glyph glyph-name="bracketright" unicode="]" horiz-adv-x="547" 
d="M887 2210l-523 -2457h-387l50 233h154l423 1992h-154l50 232h387z" />
    <glyph glyph-name="asciicircum" unicode="^" horiz-adv-x="1157" 
d="M1127 1979l179 -807h-254l-115 517l-334 -517h-254l523 807h255z" />
    <glyph glyph-name="underscore" unicode="_" horiz-adv-x="1032" 
d="M-68 -318l45 211h1032l-45 -211h-1032z" />
    <glyph glyph-name="grave" unicode="`" horiz-adv-x="624" 
d="M617 2292h222l58 -253h-177z" />
    <glyph glyph-name="a" unicode="a" 
d="M769 605q-253 -60 -293 -248q-9 -41 -9 -69q0 -59 39 -59q186 14 240 272zM826 874l150 707q5 25 5 45q0 88 -99 88h-2q-123 -1 -151 -133l-102 -480h-283l102 480q88 412 495 412q334 0 334 -278q0 -61 -16 -134l-336 -1581h-253l6 121q-119 -152 -287 -153
q-138 0 -176.5 83t-38.5 161q0 54 13 115q105 496 639 547z" />
    <glyph glyph-name="b" unicode="b" horiz-adv-x="1043" 
d="M547 1962h436q306 -1 306 -272q0 -63 -17 -141l-125 -591q-41 -193 -213 -273q106 -62 106 -191q0 -38 -9 -82q-88 -411 -483 -412h-418zM771 1683l-183 -858h89q59 0 83 8q84 31 104 125l125 591q6 26 6 46q0 88 -100 88h-124zM529 545l-57 -266h124q123 0 152 133
q4 21 4 38q0 63 -55 86q-20 9 -79 9h-89z" />
    <glyph glyph-name="c" unicode="c" horiz-adv-x="1023" 
d="M1004 381q-88 -412 -495 -413q-334 0 -334 279q0 60 16 134l255 1200q88 412 494 412q335 0 335 -279q0 -60 -16 -133l-102 -480h-283l102 480q5 24 5 44q0 88 -100 89h-2q-122 0 -150 -133l-255 -1200q-5 -25 -5 -45q0 -88 100 -88q124 0 152 133l68 319h283z" />
    <glyph glyph-name="d" unicode="d" horiz-adv-x="1053" 
d="M547 1962h436q306 -1 306 -272q0 -63 -17 -141l-241 -1137q-88 -411 -483 -412h-418zM771 1683l-299 -1404h124q123 0 152 133l241 1137q6 26 6 46q0 88 -100 88h-124z" />
    <glyph glyph-name="e" unicode="e" horiz-adv-x="944" 
d="M547 1962h734l-59 -279h-451l-188 -883h388l-59 -280h-388l-52 -241h451l-59 -279h-734z" />
    <glyph glyph-name="f" unicode="f" horiz-adv-x="924" 
d="M547 1962h734l-59 -279h-451l-188 -884h388l-60 -280h-388l-110 -519h-283z" />
    <glyph glyph-name="g" unicode="g" 
d="M1004 381q-88 -412 -495 -413q-334 0 -334 279q0 60 16 134l255 1200q88 412 494 412q335 0 335 -279q0 -60 -16 -133l-102 -481h-283l102 481q5 24 5 44q0 88 -100 89h-2q-122 0 -150 -133l-255 -1200q-5 -25 -5 -45q0 -88 100 -88q124 0 152 133l30 139h-123l59 280
h406z" />
    <glyph glyph-name="h" unicode="h" horiz-adv-x="1073" 
d="M547 1962h283l-247 -1163h247l247 1163h283l-417 -1962h-283l110 519h-247l-110 -519h-283z" />
    <glyph glyph-name="i" unicode="i" horiz-adv-x="553" 
d="M552 1962h283l-417 -1962h-283z" />
    <glyph glyph-name="j" unicode="j" horiz-adv-x="973" 
d="M200 800h283l-89 -419q-5 -24 -5 -44q0 -89 101 -89q123 0 151 133l336 1581h283l-336 -1581q-88 -413 -494 -413q-335 1 -335 279q0 61 16 134z" />
    <glyph glyph-name="k" unicode="k" horiz-adv-x="1057" 
d="M800 648l217 -648h-303l-188 530l-113 -530h-283l417 1962h283l-260 -1225l561 1225h283z" />
    <glyph glyph-name="l" unicode="l" horiz-adv-x="904" 
d="M130 0l417 1962h283l-358 -1683h451l-59 -279h-734z" />
    <glyph glyph-name="m" unicode="m" horiz-adv-x="1306" 
d="M856 955l-159 426l-294 -1382h-273l417 1962h223l192 -506l408 506h223l-417 -1962h-273l294 1382z" />
    <glyph glyph-name="n" unicode="n" horiz-adv-x="1073" 
d="M547 1962h233l192 -540l115 540h273l-417 -1962h-273l194 912l-165 480l-296 -1392h-273z" />
    <glyph glyph-name="o" unicode="o" 
d="M1004 381q-88 -412 -495 -413q-334 0 -334 279q0 60 16 134l255 1200q88 412 494 412q335 0 335 -279q0 -60 -16 -133zM976 1581q5 24 5 44q0 88 -100 89h-2q-122 0 -150 -133l-255 -1200q-5 -25 -5 -45q0 -88 100 -88q124 0 152 133z" />
    <glyph glyph-name="p" unicode="p" horiz-adv-x="999" 
d="M547 1962h412q306 -1 306 -272q0 -63 -17 -141l-131 -616q-64 -304 -354 -392q-69 -21 -193 -21h-46l-111 -520h-283zM771 1683l-188 -883h65q59 0 83 8q83 31 103 125l131 616q6 26 6 46q0 88 -100 88h-100z" />
    <glyph glyph-name="q" unicode="q" 
d="M1004 381q-78 -368 -397 -407v-6q0 -78 292 -80l-50 -236q-410 1 -410 246q0 34 8 73q-272 20 -272 273q0 62 16 137l255 1200q88 412 494 412q335 0 335 -279q0 -60 -16 -133zM976 1581q5 24 5 44q0 88 -100 89h-2q-122 0 -150 -133l-255 -1200q-5 -25 -5 -45
q0 -88 100 -88q124 0 152 133z" />
    <glyph glyph-name="r" unicode="r" horiz-adv-x="1044" 
d="M771 1683l-190 -893h65q59 0 83 8q83 31 103 125l133 626q6 26 6 46q0 88 -100 88h-100zM842 571l172 -571h-310l-141 520h-39l-111 -520h-283l417 1962h412q306 -1 306 -272q0 -63 -17 -141l-131 -616q-55 -260 -275 -362z" />
    <glyph glyph-name="s" unicode="s" 
d="M446 1581q88 412 494 412q335 0 335 -279q0 -60 -16 -133l-102 -480h-283l102 480q5 24 5 44q0 88 -100 89h-2q-122 0 -150 -133l-71 -332q-9 -40 -9 -79q0 -180 191 -312q177 -149 177 -359q0 -57 -13 -118q-88 -413 -494 -413q-335 1 -335 279q0 61 16 134l29 138h283
l-29 -138q-5 -24 -5 -44q0 -89 101 -89q123 0 151 133q4 17 4 34q0 130 -198 298q-170 143 -170 374q0 73 17 156z" />
    <glyph glyph-name="t" unicode="t" horiz-adv-x="913" 
d="M1280 1962l-59 -279h-265l-358 -1683h-283l358 1683h-265l59 279h813z" />
    <glyph glyph-name="u" unicode="u" horiz-adv-x="1053" 
d="M1014 381q-88 -412 -495 -413q-334 0 -334 279q0 60 16 134l336 1581h283l-336 -1581q-5 -25 -5 -45q0 -88 100 -88q124 0 152 133l336 1581h283z" />
    <glyph glyph-name="v" unicode="v" horiz-adv-x="1051" 
d="M720 0h-388l125 1962h286l-144 -1612l543 1612h286z" />
    <glyph glyph-name="w" unicode="w" horiz-adv-x="1396" 
d="M799 476l-299 -476h-248l215 1962h285l-181 -1462l350 526l113 -536l443 1472h286l-618 -1962h-258z" />
    <glyph glyph-name="x" unicode="x" horiz-adv-x="987" 
d="M649 728l460 1233h285l-510 -1311l93 -651h-305l-49 608l-308 -608h-305l369 651l48 1311h285z" />
    <glyph glyph-name="y" unicode="y" horiz-adv-x="1066" 
d="M757 1962l-22 -1014l408 1014h300l-658 -1446l-110 -516h-283l110 516l-45 1446h300z" />
    <glyph glyph-name="z" unicode="z" horiz-adv-x="880" 
d="M1164 1792l-706 -1513h401l-59 -279h-720l36 170l706 1513h-371l59 279h690z" />
    <glyph glyph-name="braceleft" unicode="{" horiz-adv-x="545" 
d="M462 -247q-321 4 -321 279q0 61 15 134l121 566q5 26 5 47q0 84 -88 86l49 233q112 3 140 133l120 567q87 407 482 412l-50 -232q-111 -3 -139 -134l-120 -566q-43 -199 -202 -296q87 -72 87 -200q0 -45 -11 -97l-121 -566q-5 -26 -5 -46q0 -85 88 -87z" />
    <glyph glyph-name="bar" unicode="|" horiz-adv-x="512" 
d="M627 2290h232l-557 -2617h-232z" />
    <glyph glyph-name="braceright" unicode="}" horiz-adv-x="545" 
d="M27 -14q112 3 139 133l121 566q42 199 202 297q-87 71 -87 198q0 45 11 98l120 566q6 26 6 48q0 84 -89 86l50 232q322 -4 322 -278q0 -60 -16 -134l-120 -567q-6 -26 -6 -48q0 -83 88 -85l-49 -233q-112 -2 -139 -133l-121 -566q-86 -408 -482 -413z" />
    <glyph glyph-name="asciitilde" unicode="~" horiz-adv-x="1100" 
d="M445 831l-145 109l71 83q132 154 265 154h10q87 -4 202 -106q57 -51 101 -51q31 0 55 24l78 78l130 -124l-78 -78q-115 -114 -229 -114h-12q-87 4 -199 105q-67 60 -83 63q-4 1 -9 1q-34 0 -86 -60z" />
    <glyph glyph-name="exclamdown" unicode="&#xa1;" horiz-adv-x="565" 
d="M120 -1l325 1432h283l-283 -1432h-325zM793 1636h-325l69 325h325z" />
    <glyph glyph-name="cent" unicode="&#xa2;" horiz-adv-x="1073" 
d="M532 609l418 805q1 7 1 14q0 82 -103 83q-124 0 -149 -118zM488 247q24 -28 85 -28q124 0 148 117l50 233h283l-50 -233q-77 -363 -484 -363q-96 0 -164 20l-167 -320l-137 9l192 372q-65 63 -65 176q0 48 12 106l225 1057q77 364 483 364q128 0 209 -36l120 231l138 -9
l-159 -306q34 -56 34 -137q0 -49 -12 -107l-49 -232h-219z" />
    <glyph glyph-name="sterling" unicode="&#xa3;" horiz-adv-x="1126" 
d="M714 838l-61 -286q-37 -177 -120 -273h583l-59 -279h-997l55 259h69q124 0 153 134l94 445h-193l34 158h193l124 585q88 413 494 413q335 0 335 -279q0 -61 -16 -134l-56 -263h-283l56 263q5 25 5 45q0 88 -100 88h-2q-122 0 -150 -133l-124 -585h411l-34 -158h-411z" />
    <glyph glyph-name="currency" unicode="&#xa4;" horiz-adv-x="1398" 
d="M1286 848q-12 -57 -29 -106l133 -168l-206 -171l-87 111q-113 -78 -305 -78t-272 77l-133 -110l-135 171l205 168q4 48 16 106l57 267q10 48 23 89l-132 167l208 170l78 -100q115 87 317 87t280 -87l122 100l133 -170l-202 -167q-4 -41 -14 -89zM1060 1115q5 24 5 44
q0 88 -100 89h-2q-122 0 -150 -133l-57 -267q-5 -25 -5 -45q0 -88 100 -88q124 0 152 133z" />
    <glyph glyph-name="yen" unicode="&#xa5;" horiz-adv-x="1186" 
d="M611 976l-94 986h300l31 -764l355 764h300l-514 -986h215l-33 -158h-262l-34 -159h262l-34 -159h-262l-106 -500h-283l106 500h-262l34 159h262l34 159h-262l33 158h214z" />
    <glyph glyph-name="brokenbar" unicode="&#xa6;" horiz-adv-x="512" 
d="M508 1729h232l-158 -743h-232zM307 784h232l-167 -784h-232z" />
    <glyph glyph-name="section" unicode="&#xa7;" horiz-adv-x="1053" 
d="M459 -327q-319 0 -319 260q0 54 14 120l23 106h283l-23 -106q-5 -23 -5 -42q0 -81 92 -81q110 0 136 123q6 29 6 57q0 159 -195 295q-176 121 -176 348q0 72 18 155q58 273 262 346q-121 94 -121 262q0 57 14 122q76 356 479 356q323 0 323 -249q0 -48 -13 -107l-21 -100
h-283l21 100q5 21 5 38q0 77 -92 77q-111 0 -136 -115q-5 -25 -5 -50q0 -151 200 -280q180 -116 180 -335q0 -64 -15 -137q-61 -285 -314 -340q162 -114 162 -315q0 -60 -15 -128q-81 -380 -485 -380zM843 896q6 27 6 49q0 94 -108 95h-2q-132 0 -163 -144l-8 -41
q-6 -27 -6 -49q0 -95 108 -95q134 0 165 144z" />
    <glyph glyph-name="dieresis" unicode="&#xa8;" horiz-adv-x="899" 
d="M617 2292h242l-51 -242h-242zM1013 2292h243l-51 -242h-243z" />
    <glyph glyph-name="copyright" unicode="&#xa9;" horiz-adv-x="1463" 
d="M1472 608q-129 -607 -741 -607q-506 0 -506 408q0 85 22 187l170 801q129 608 740 608q508 0 508 -409q0 -84 -22 -186zM1456 1410q15 70 15 128q0 284 -352 284q-425 0 -515 -425l-170 -801q-15 -71 -15 -129q0 -283 351 -283q425 0 515 424zM1132 604
q-58 -275 -329 -275q-222 0 -222 186q0 40 10 89l170 798q58 274 328 274q223 0 223 -186q0 -40 -10 -88l-16 -77h-189l16 77q4 17 4 30q0 58 -66 59q-83 0 -102 -89l-170 -798q-4 -17 -4 -30q0 -59 67 -59q82 0 101 89l17 76h189z" />
    <glyph glyph-name="ordfeminine" unicode="&#xaa;" horiz-adv-x="761" 
d="M915 1293l-17 -368h-189l11 221h-191l-84 -221h-188l139 367l274 670h256zM726 1293l20 431l-162 -431h142zM178 521l41 193h619l-41 -193h-619z" />
    <glyph glyph-name="guillemotleft" unicode="&#xab;" horiz-adv-x="1305" 
d="M937 1179l-265 -190l185 -184l-68 -320l-446 517l664 507zM1426 1179l-265 -190l185 -184l-68 -320l-446 517l664 507z" />
    <glyph glyph-name="logicalnot" unicode="&#xac;" horiz-adv-x="1067" 
d="M314 865l49 233h807l-110 -520h-232l61 287h-575z" />
    <glyph glyph-name="registered" unicode="&#xae;" horiz-adv-x="1463" 
d="M1472 608q-129 -607 -741 -607q-506 0 -506 408q0 85 22 187l170 801q129 608 740 608q508 0 508 -409q0 -84 -22 -186zM1456 1410q15 70 15 128q0 284 -352 284q-425 0 -515 -425l-170 -801q-15 -71 -15 -129q0 -283 351 -283q425 0 515 424zM810 1656l278 -1h12
q204 0 204 -181q0 -42 -11 -93l-42 -197q-28 -128 -142 -181q71 -41 71 -127q0 -26 -6 -55l-101 -471h-188l101 471q3 13 3 25q0 42 -37 58q-14 6 -54 6h-59l-119 -560h-188zM958 1470l-79 -374h59q40 0 56 6q55 20 69 82l42 197q3 16 3 29q0 60 -67 60h-83z" />
    <glyph glyph-name="macron" unicode="&#xaf;" horiz-adv-x="1208" 
d="M372 1752l45 211h1208l-45 -211h-1208z" />
    <glyph glyph-name="degree" unicode="&#xb0;" horiz-adv-x="877" 
d="M1129 1840q0 -45 -12 -99q-66 -309 -375 -309q-254 0 -254 210q0 44 12 99q66 308 374 308q255 0 255 -209zM835 1866q-125 0 -152 -125q-5 -22 -5 -41q0 -85 103 -85q126 0 153 126q5 22 5 40q0 85 -104 85z" />
    <glyph glyph-name="plusminus" unicode="&#xb1;" horiz-adv-x="1047" 
d="M592 865h-288l49 233h288l61 287h232l-61 -287h287l-49 -233h-287l-61 -287h-232zM1004 372l-45 -212h-805l45 212h805z" />
    <glyph glyph-name="uni00B2" unicode="&#xb2;" horiz-adv-x="674" 
d="M329 1077q33 154 210 265q178 110 195 187l48 224q3 14 3 26q0 52 -58 52h-1q-72 0 -88 -78l-33 -153h-165l33 153q51 241 288 241q195 0 195 -163q0 -35 -9 -78l-49 -228q-33 -158 -212 -269q-177 -110 -195 -193l-15 -69h309l-34 -163h-474z" />
    <glyph glyph-name="uni00B3" unicode="&#xb3;" horiz-adv-x="679" 
d="M682 1261q5 23 5 39q0 28 -15 36q-14 6 -43 6h-57l35 164h70q23 0 37 7q24 13 37 71l36 172q5 23 5 40q0 27 -15 35q-14 6 -45 6q-8 0 -17 -1q-60 -2 -77 -80l-32 -154h-165l32 155q36 168 144 218q75 35 146 35q66 0 129 -31q71 -33 71 -134q0 -39 -11 -88l-37 -174
q-24 -114 -125 -161q62 -36 62 -112q0 -23 -5 -49l-45 -210q-32 -151 -121 -206q-57 -35 -161 -38h-14q-92 0 -137 30q-56 36 -56 127q0 39 10 87l33 155h165l-33 -156q-3 -15 -3 -27q0 -53 60 -53q75 0 92 80z" />
    <glyph glyph-name="acute" unicode="&#xb4;" horiz-adv-x="624" 
d="M740 2039h-177l166 253h222z" />
    <glyph glyph-name="mu" unicode="&#xb5;" horiz-adv-x="1063" 
d="M494 380q-5 -24 -5 -44q0 -88 100 -88q124 0 152 133l267 1254h283l-267 -1254q-79 -373 -406 -408q-19 -2 -37 -2q-93 0 -163 53l-75 -351h-283l418 1962h283z" />
    <glyph glyph-name="paragraph" unicode="&#xb6;" horiz-adv-x="1170" 
d="M1457 1963l-417 -1963h-201l375 1762h-223l-375 -1762h-201l217 1021q-194 0 -238 39q-34 30 -34 109q0 58 18 141l76 354q42 199 125 255q64 44 253 44h625z" />
    <glyph glyph-name="periodcentered" unicode="&#xb7;" horiz-adv-x="508" 
d="M358 1119h276l-59 -276h-276z" />
    <glyph glyph-name="periodcentered" unicode="&#x2219;" horiz-adv-x="508" 
d="M358 1119h276l-59 -276h-276z" />
    <glyph glyph-name="cedilla" unicode="&#xb8;" horiz-adv-x="571" 
d="M197 -270q67 0 80 65q3 13 3 23q0 33 -31 34q-31 0 -43 -17h-76l72 166h109l-57 -97q27 10 53 10q104 0 104 -82q0 -17 -4 -37q-33 -155 -217 -155q-100 0 -154 32l44 76q42 -18 117 -18z" />
    <glyph glyph-name="uni00B9" unicode="&#xb9;" horiz-adv-x="1073" 
d="M863 1962l-206 -971h153l-35 -161h-469l35 161h153l172 810h-153l34 161h316z" />
    <glyph glyph-name="ordmasculine" unicode="&#xba;" horiz-adv-x="777" 
d="M893 1110q-46 -218 -315 -218q-229 0 -229 159q0 27 7 59l135 634q46 218 314 218q230 0 230 -159q0 -27 -7 -59zM841 1744q2 11 2 20q0 50 -68 51q-82 0 -97 -71l-135 -634q-2 -11 -2 -20q0 -51 68 -51q82 0 97 71zM238 506l37 175h516l-37 -175h-516z" />
    <glyph glyph-name="guillemotright" unicode="&#xbb;" horiz-adv-x="1305" 
d="M451 1509l448 -507l-666 -517l68 320l263 184l-183 190zM940 1509l448 -507l-666 -517l68 320l263 184l-183 190z" />
    <glyph glyph-name="onequarter" unicode="&#xbc;" horiz-adv-x="1609" 
d="M1685 1125l-146 -689h63l-34 -160h-63l-59 -276h-162l59 276h-329l30 142l434 707h207zM1208 436h169l91 429zM1754 1963l-1139 -1963h-176l1140 1963h175zM853 1962l-206 -971h153l-35 -161h-469l35 161h153l172 810h-153l34 161h316z" />
    <glyph glyph-name="onehalf" unicode="&#xbd;" horiz-adv-x="1685" 
d="M1694 1963l-1139 -1963h-176l1140 1963h175zM793 1962l-206 -971h153l-35 -161h-469l35 161h153l172 810h-153l34 161h316zM1163 246q33 154 211 265q177 110 194 187l48 224q3 15 3 27q0 51 -57 51h-1q-72 0 -89 -78l-33 -153h-165l33 153q51 241 288 241
q195 0 195 -163q0 -35 -9 -78l-48 -228q-34 -158 -213 -269q-177 -110 -195 -193l-14 -69h309l-35 -163h-474z" />
    <glyph glyph-name="threequarters" unicode="&#xbe;" horiz-adv-x="1549" 
d="M1625 1125l-146 -689h63l-34 -160h-63l-59 -276h-162l59 276h-329l30 142l434 707h207zM1148 436h169l91 429zM1694 1963l-1139 -1963h-176l1140 1963h175zM682 1261q5 23 5 39q0 28 -15 36q-14 6 -43 6h-57l35 164h70q23 0 37 7q24 13 37 71l36 172q5 23 5 40
q0 27 -15 35q-14 6 -45 6q-8 0 -17 -1q-60 -2 -77 -80l-32 -154h-165l32 155q36 168 144 218q75 35 146 35q66 0 129 -31q71 -33 71 -134q0 -39 -11 -88l-37 -174q-24 -114 -125 -161q62 -36 62 -112q0 -23 -5 -49l-45 -210q-32 -151 -121 -206q-57 -35 -161 -38h-14
q-92 0 -137 30q-56 36 -56 127q0 39 10 87l33 155h165l-33 -156q-3 -15 -3 -27q0 -53 60 -53q75 0 92 80z" />
    <glyph glyph-name="questiondown" unicode="&#xbf;" horiz-adv-x="1053" 
d="M1115 1404h-325l70 325h325zM193 345q53 249 294 447t273 345l9 45h283l-14 -69q-53 -245 -293 -442q-241 -197 -270 -333l-41 -190q-5 -25 -5 -45q0 -88 99 -88h2q123 0 151 133l56 263h283l-56 -263q-87 -413 -494 -413q-334 0 -334 280q0 60 15 133z" />
    <glyph glyph-name="Agrave" unicode="&#xc0;" horiz-adv-x="1051" 
d="M782 670l79 912l-309 -912h230zM461 400l-136 -400h-285l709 1962h388l-126 -1962h-286l34 400h-298zM790 2293h222l59 -253h-177z" />
    <glyph glyph-name="Aacute" unicode="&#xc1;" horiz-adv-x="1051" 
d="M782 670l79 912l-309 -912h230zM461 400l-136 -400h-285l709 1962h388l-126 -1962h-286l34 400h-298zM1025 2040h-177l165 253h222z" />
    <glyph glyph-name="Acircumflex" unicode="&#xc2;" horiz-adv-x="1051" 
d="M782 670l79 912l-309 -912h230zM461 400l-136 -400h-285l709 1962h388l-126 -1962h-286l34 400h-298zM985 2160l-116 -119h-211l227 252h255l121 -252h-211z" />
    <glyph glyph-name="Atilde" unicode="&#xc3;" horiz-adv-x="1051" 
d="M782 670l79 912l-309 -912h230zM461 400l-136 -400h-285l709 1962h388l-126 -1962h-286l34 400h-298zM744 2001l-121 73l50 71q96 135 204 141h7q67 0 159 -66q44 -32 77 -32q28 0 48 23l55 67l112 -86l-56 -68q-85 -102 -180 -107h-7q-67 0 -157 66q-58 41 -70 43h-4
q-28 0 -67 -54z" />
    <glyph glyph-name="Adieresis" unicode="&#xc4;" horiz-adv-x="1051" 
d="M782 670l79 912l-309 -912h230zM461 400l-136 -400h-285l709 1962h388l-126 -1962h-286l34 400h-298zM693 2293h242l-51 -242h-242zM1089 2293h243l-51 -242h-243z" />
    <glyph glyph-name="Aring" unicode="&#xc5;" horiz-adv-x="1051" 
d="M782 670l79 912l-309 -912h230zM985 2165q-90 0 -109 -90q-3 -16 -3 -29q0 -62 74 -62q91 0 110 91q3 16 3 28q0 62 -75 62zM1136 1952l-125 -1952h-286l34 400h-298l-136 -400h-285l705 1951q-7 24 -7 54q0 31 8 70q47 220 267 220q182 0 182 -150q0 -31 -8 -70
q-16 -74 -51 -123z" />
    <glyph glyph-name="AE" unicode="&#xc6;" horiz-adv-x="1458" 
d="M933 1682l-322 -892h201l190 892h-69zM513 520l-188 -520h-285l709 1962h1046l-59 -279h-451l-190 -893h387l-57 -270h-387l-52 -241h451l-59 -279h-734l111 520h-242z" />
    <glyph glyph-name="Ccedilla" unicode="&#xc7;" horiz-adv-x="1023" 
d="M421 -26q-246 34 -246 273q0 60 16 134l255 1200q88 412 494 412q335 0 335 -279q0 -60 -16 -133l-102 -480h-283l102 480q5 24 5 44q0 88 -100 89h-2q-122 0 -150 -133l-255 -1200q-5 -25 -5 -45q0 -88 100 -88q124 0 152 133l68 319h283l-68 -319q-86 -405 -482 -413
l-37 -64q27 10 53 10q104 0 104 -82q0 -17 -4 -37q-33 -155 -217 -155q-100 0 -154 32l44 76q42 -18 117 -18q67 0 80 65q3 13 3 23q0 33 -31 34q-31 0 -43 -17h-76z" />
    <glyph glyph-name="Egrave" unicode="&#xc8;" horiz-adv-x="944" 
d="M547 1962h734l-59 -279h-451l-188 -883h388l-59 -280h-388l-52 -241h451l-59 -279h-734zM761 2293h222l59 -253h-177z" />
    <glyph glyph-name="Eacute" unicode="&#xc9;" horiz-adv-x="944" 
d="M547 1962h734l-59 -279h-451l-188 -883h388l-59 -280h-388l-52 -241h451l-59 -279h-734zM997 2040h-177l165 253h222z" />
    <glyph glyph-name="Ecircumflex" unicode="&#xca;" horiz-adv-x="944" 
d="M547 1962h734l-59 -279h-451l-188 -883h388l-59 -280h-388l-52 -241h451l-59 -279h-734zM957 2160l-116 -119h-211l227 252h255l121 -252h-211z" />
    <glyph glyph-name="Edieresis" unicode="&#xcb;" horiz-adv-x="944" 
d="M547 1962h734l-59 -279h-451l-188 -883h388l-59 -280h-388l-52 -241h451l-59 -279h-734zM665 2293h242l-51 -242h-242zM1061 2293h243l-51 -242h-243z" />
    <glyph glyph-name="Igrave" unicode="&#xcc;" horiz-adv-x="553" 
d="M552 1962h283l-417 -1962h-283zM541 2293h222l59 -253h-177z" />
    <glyph glyph-name="Iacute" unicode="&#xcd;" horiz-adv-x="553" 
d="M552 1962h283l-417 -1962h-283zM776 2040h-177l165 253h222z" />
    <glyph glyph-name="Icircumflex" unicode="&#xce;" horiz-adv-x="553" 
d="M552 1962h283l-417 -1962h-283zM736 2160l-116 -119h-211l227 252h255l121 -252h-211z" />
    <glyph glyph-name="Idieresis" unicode="&#xcf;" horiz-adv-x="553" 
d="M552 1962h283l-417 -1962h-283zM444 2293h242l-51 -242h-242zM840 2293h243l-51 -242h-243z" />
    <glyph glyph-name="Eth" unicode="&#xd0;" horiz-adv-x="1115" 
d="M651 876l-127 -597h124q123 0 152 133l241 1137q6 26 6 46q0 88 -100 88h-124l-127 -596h98l-45 -211h-98zM413 1087l186 875l436 -1q306 0 306 -271q0 -63 -17 -141l-241 -1137q-88 -411 -465 -411q-6 0 -18 -1h-418l186 876h-124l45 211h124z" />
    <glyph glyph-name="Ntilde" unicode="&#xd1;" horiz-adv-x="1073" 
d="M547 1962h233l192 -540l115 540h273l-417 -1962h-273l194 912l-165 480l-296 -1392h-273zM755 2001l-121 73l50 71q96 135 204 141h7q67 0 159 -66q44 -32 77 -32q28 0 48 23l55 67l112 -86l-56 -68q-85 -102 -180 -107h-7q-67 0 -157 66q-58 41 -70 43h-4q-28 0 -67 -54
z" />
    <glyph glyph-name="Ograve" unicode="&#xd2;" 
d="M1004 381q-88 -412 -495 -413q-334 0 -334 279q0 60 16 134l255 1200q88 412 494 412q335 0 335 -279q0 -60 -16 -133zM976 1581q5 24 5 44q0 88 -100 89h-2q-122 0 -150 -133l-255 -1200q-5 -25 -5 -45q0 -88 100 -88q124 0 152 133zM781 2293h222l59 -253h-177z" />
    <glyph glyph-name="Oacute" unicode="&#xd3;" 
d="M1004 381q-88 -412 -495 -413q-334 0 -334 279q0 60 16 134l255 1200q88 412 494 412q335 0 335 -279q0 -60 -16 -133zM976 1581q5 24 5 44q0 88 -100 89h-2q-122 0 -150 -133l-255 -1200q-5 -25 -5 -45q0 -88 100 -88q124 0 152 133zM1016 2040h-177l165 253h222z" />
    <glyph glyph-name="Ocircumflex" unicode="&#xd4;" 
d="M1004 381q-88 -412 -495 -413q-334 0 -334 279q0 60 16 134l255 1200q88 412 494 412q335 0 335 -279q0 -60 -16 -133zM976 1581q5 24 5 44q0 88 -100 89h-2q-122 0 -150 -133l-255 -1200q-5 -25 -5 -45q0 -88 100 -88q124 0 152 133zM976 2160l-116 -119h-211l227 252
h255l121 -252h-211z" />
    <glyph glyph-name="Otilde" unicode="&#xd5;" 
d="M1004 381q-88 -412 -495 -413q-334 0 -334 279q0 60 16 134l255 1200q88 412 494 412q335 0 335 -279q0 -60 -16 -133zM976 1581q5 24 5 44q0 88 -100 89h-2q-122 0 -150 -133l-255 -1200q-5 -25 -5 -45q0 -88 100 -88q124 0 152 133zM735 2001l-121 73l50 71
q96 135 204 141h7q67 0 159 -66q44 -32 77 -32q28 0 48 23l55 67l112 -86l-56 -68q-85 -102 -180 -107h-7q-67 0 -157 66q-58 41 -70 43h-4q-28 0 -67 -54z" />
    <glyph glyph-name="Odieresis" unicode="&#xd6;" 
d="M1004 381q-88 -412 -495 -413q-334 0 -334 279q0 60 16 134l255 1200q88 412 494 412q335 0 335 -279q0 -60 -16 -133zM976 1581q5 24 5 44q0 88 -100 89h-2q-122 0 -150 -133l-255 -1200q-5 -25 -5 -45q0 -88 100 -88q124 0 152 133zM684 2293h242l-51 -242h-242z
M1080 2293h243l-51 -242h-243z" />
    <glyph glyph-name="multiply" unicode="&#xd7;" horiz-adv-x="1047" 
d="M698 817l-246 -203l-130 165l247 203l-160 203l199 164l160 -203l246 203l129 -165l-246 -202l160 -203l-199 -164z" />
    <glyph glyph-name="Oslash" unicode="&#xd8;" horiz-adv-x="1053" 
d="M482 303q18 -55 97 -55q124 0 152 133l187 878zM577 819l395 868q-26 27 -81 27h-2q-122 0 -150 -133zM1214 1911q71 -69 71 -197q0 -60 -16 -133l-255 -1200q-88 -412 -495 -413q-105 0 -176 27l-92 -201h-140l126 277q-52 66 -52 176q0 61 16 134l255 1200
q88 412 494 412q88 0 152 -19l58 127h141z" />
    <glyph glyph-name="Ugrave" unicode="&#xd9;" horiz-adv-x="1053" 
d="M1014 381q-88 -412 -495 -413q-334 0 -334 279q0 60 16 134l336 1581h283l-336 -1581q-5 -25 -5 -45q0 -88 100 -88q124 0 152 133l336 1581h283zM791 2293h222l59 -253h-177z" />
    <glyph glyph-name="Uacute" unicode="&#xda;" horiz-adv-x="1053" 
d="M1014 381q-88 -412 -495 -413q-334 0 -334 279q0 60 16 134l336 1581h283l-336 -1581q-5 -25 -5 -45q0 -88 100 -88q124 0 152 133l336 1581h283zM1026 2040h-177l165 253h222z" />
    <glyph glyph-name="Ucircumflex" unicode="&#xdb;" horiz-adv-x="1053" 
d="M1014 381q-88 -412 -495 -413q-334 0 -334 279q0 60 16 134l336 1581h283l-336 -1581q-5 -25 -5 -45q0 -88 100 -88q124 0 152 133l336 1581h283zM986 2160l-116 -119h-211l227 252h255l121 -252h-211z" />
    <glyph glyph-name="Udieresis" unicode="&#xdc;" horiz-adv-x="1053" 
d="M1014 381q-88 -412 -495 -413q-334 0 -334 279q0 60 16 134l336 1581h283l-336 -1581q-5 -25 -5 -45q0 -88 100 -88q124 0 152 133l336 1581h283zM694 2293h242l-51 -242h-242zM1090 2293h243l-51 -242h-243z" />
    <glyph glyph-name="Yacute" unicode="&#xdd;" horiz-adv-x="1066" 
d="M757 1962l-22 -1014l408 1014h300l-658 -1446l-110 -516h-283l110 516l-45 1446h300zM1033 2040h-177l165 253h222z" />
    <glyph glyph-name="Thorn" unicode="&#xde;" horiz-adv-x="1018" 
d="M130 0l417 1962h283l-69 -327h92q6 0 17 -1h19q305 0 305 -272q0 -63 -16 -140l-63 -295q-65 -304 -353 -392q-71 -21 -195 -21h-45l-109 -514h-283zM701 1356l-119 -563h64q59 0 83 9q83 31 103 125l63 295q5 25 5 45q0 89 -100 89h-99z" />
    <glyph glyph-name="germandbls" unicode="&#xdf;" horiz-adv-x="1053" 
d="M1210 1254q-41 -193 -214 -273q107 -61 107 -189q0 -39 -10 -84l-67 -318q-87 -411 -464 -411l-29 -1l60 279q122 0 150 133l67 318q4 21 4 39q0 62 -54 86q-21 9 -80 9h-88l-179 -842h-283l329 1550q88 412 494 412q335 0 335 -279q0 -60 -16 -133zM651 1121h88
q59 0 84 9q84 30 104 124l62 296q6 25 6 46q0 86 -100 87h-2q-122 0 -151 -133z" />
    <glyph glyph-name="agrave" unicode="&#xe0;" 
d="M769 605q-253 -60 -293 -248q-9 -41 -9 -69q0 -59 39 -59q186 14 240 272zM826 874l150 707q5 25 5 45q0 88 -99 88h-2q-123 -1 -151 -133l-102 -480h-283l102 480q88 412 495 412q334 0 334 -278q0 -61 -16 -134l-336 -1581h-253l6 121q-119 -152 -287 -153
q-138 0 -176.5 83t-38.5 161q0 54 13 115q105 496 639 547zM770 2292h222l58 -253h-177z" />
    <glyph glyph-name="aacute" unicode="&#xe1;" 
d="M769 605q-253 -60 -293 -248q-9 -41 -9 -69q0 -59 39 -59q186 14 240 272zM826 874l150 707q5 25 5 45q0 88 -99 88h-2q-123 -1 -151 -133l-102 -480h-283l102 480q88 412 495 412q334 0 334 -278q0 -61 -16 -134l-336 -1581h-253l6 121q-119 -152 -287 -153
q-138 0 -176.5 83t-38.5 161q0 54 13 115q105 496 639 547zM1014 2039h-177l166 253h222z" />
    <glyph glyph-name="acircumflex" unicode="&#xe2;" 
d="M769 605q-253 -60 -293 -248q-9 -41 -9 -69q0 -59 39 -59q186 14 240 272zM826 874l150 707q5 25 5 45q0 88 -99 88h-2q-123 -1 -151 -133l-102 -480h-283l102 480q88 412 495 412q334 0 334 -278q0 -61 -16 -134l-336 -1581h-253l6 121q-119 -152 -287 -153
q-138 0 -176.5 83t-38.5 161q0 54 13 115q105 496 639 547zM979 2159l-116 -119h-211l227 252h255l121 -252h-211z" />
    <glyph glyph-name="atilde" unicode="&#xe3;" 
d="M769 605q-253 -60 -293 -248q-9 -41 -9 -69q0 -59 39 -59q186 14 240 272zM826 874l150 707q5 25 5 45q0 88 -99 88h-2q-123 -1 -151 -133l-102 -480h-283l102 480q88 412 495 412q334 0 334 -278q0 -61 -16 -134l-336 -1581h-253l6 121q-119 -152 -287 -153
q-138 0 -176.5 83t-38.5 161q0 54 13 115q105 496 639 547zM744 2000l-121 73l50 71q95 135 204 141h7q67 0 159 -66q44 -32 77 -32q28 0 48 23l55 67l112 -86l-56 -68q-85 -102 -180 -107h-7q-67 0 -157 66q-58 41 -70 43h-4q-28 0 -67 -54z" />
    <glyph glyph-name="adieresis" unicode="&#xe4;" 
d="M769 605q-253 -60 -293 -248q-9 -41 -9 -69q0 -59 39 -59q186 14 240 272zM826 874l150 707q5 25 5 45q0 88 -99 88h-2q-123 -1 -151 -133l-102 -480h-283l102 480q88 412 495 412q334 0 334 -278q0 -61 -16 -134l-336 -1581h-253l6 121q-119 -152 -287 -153
q-138 0 -176.5 83t-38.5 161q0 54 13 115q105 496 639 547zM693 2292h242l-51 -242h-242zM1089 2292h243l-51 -242h-243z" />
    <glyph glyph-name="aring" unicode="&#xe5;" horiz-adv-x="1051" 
d="M782 670l79 912l-309 -912h230zM985 2165q-90 0 -109 -90q-3 -16 -3 -29q0 -62 74 -62q91 0 110 91q3 16 3 28q0 62 -75 62zM1136 1952l-125 -1952h-286l34 400h-298l-136 -400h-285l705 1951q-7 24 -7 54q0 31 8 70q47 220 267 220q182 0 182 -150q0 -31 -8 -70
q-16 -74 -51 -123z" />
    <glyph glyph-name="ae" unicode="&#xe6;" horiz-adv-x="1458" 
d="M933 1682l-322 -892h201l190 892h-69zM513 520l-188 -520h-285l709 1962h1046l-59 -279h-451l-190 -893h387l-57 -270h-387l-52 -241h451l-59 -279h-734l111 520h-242z" />
    <glyph glyph-name="ccedilla" unicode="&#xe7;" horiz-adv-x="1023" 
d="M428 -27q-252 31 -252 275q0 60 15 133l255 1200q88 412 494 412q335 0 335 -279q0 -60 -16 -133l-102 -480h-283l102 480q5 24 5 44q0 88 -100 89h-2q-122 0 -150 -133l-255 -1200q-5 -25 -5 -45q0 -88 100 -88q124 0 152 133l68 319h283l-68 -319q-85 -401 -474 -413
l-38 -64q27 10 53 10q104 0 104 -82q0 -17 -4 -37q-33 -155 -217 -155q-100 0 -154 32l44 76q42 -18 117 -18q67 0 80 65q3 13 3 23q0 33 -31 34q-31 0 -43 -17h-76z" />
    <glyph glyph-name="egrave" unicode="&#xe8;" horiz-adv-x="944" 
d="M547 1962h734l-59 -279h-451l-188 -883h388l-59 -280h-388l-52 -241h451l-59 -279h-734zM761 2292h222l58 -253h-177z" />
    <glyph glyph-name="eacute" unicode="&#xe9;" horiz-adv-x="944" 
d="M547 1962h734l-59 -279h-451l-188 -883h388l-59 -280h-388l-52 -241h451l-59 -279h-734zM996 2039h-177l166 253h222z" />
    <glyph glyph-name="ecircumflex" unicode="&#xea;" horiz-adv-x="944" 
d="M547 1962h734l-59 -279h-451l-188 -883h388l-59 -280h-388l-52 -241h451l-59 -279h-734zM957 2159l-116 -119h-211l227 252h255l121 -252h-211z" />
    <glyph glyph-name="edieresis" unicode="&#xeb;" horiz-adv-x="944" 
d="M547 1962h734l-59 -279h-451l-188 -883h388l-59 -280h-388l-52 -241h451l-59 -279h-734zM665 2292h242l-51 -242h-242zM1061 2292h243l-51 -242h-243z" />
    <glyph glyph-name="igrave" unicode="&#xec;" horiz-adv-x="553" 
d="M552 1962h283l-417 -1962h-283zM541 2292h222l58 -253h-177z" />
    <glyph glyph-name="iacute" unicode="&#xed;" horiz-adv-x="553" 
d="M552 1962h283l-417 -1962h-283zM775 2039h-177l166 253h222z" />
    <glyph glyph-name="icircumflex" unicode="&#xee;" horiz-adv-x="553" 
d="M552 1962h283l-417 -1962h-283zM736 2159l-116 -119h-211l227 252h255l121 -252h-211z" />
    <glyph glyph-name="idieresis" unicode="&#xef;" horiz-adv-x="553" 
d="M552 1962h283l-417 -1962h-283zM444 2292h242l-51 -242h-242zM840 2292h243l-51 -242h-243z" />
    <glyph glyph-name="eth" unicode="&#xf0;" horiz-adv-x="1115" 
d="M651 876l-127 -597h124q123 0 152 133l241 1137q6 26 6 46q0 88 -100 88h-124l-127 -596h98l-45 -211h-98zM413 1087l186 875l436 -1q306 0 306 -271q0 -63 -17 -141l-241 -1137q-88 -411 -465 -411q-6 0 -18 -1h-418l186 876h-124l45 211h124z" />
    <glyph glyph-name="ntilde" unicode="&#xf1;" horiz-adv-x="1073" 
d="M547 1962h233l192 -540l115 540h273l-417 -1962h-273l194 912l-165 480l-296 -1392h-273zM755 2000l-121 73l50 71q95 135 204 141h7q67 0 159 -66q44 -32 77 -32q28 0 48 23l55 67l112 -86l-56 -68q-85 -102 -180 -107h-7q-67 0 -157 66q-58 41 -70 43h-4q-28 0 -67 -54
z" />
    <glyph glyph-name="ograve" unicode="&#xf2;" 
d="M1004 381q-88 -412 -495 -413q-334 0 -334 279q0 60 16 134l255 1200q88 412 494 412q335 0 335 -279q0 -60 -16 -133zM976 1581q5 24 5 44q0 88 -100 89h-2q-122 0 -150 -133l-255 -1200q-5 -25 -5 -45q0 -88 100 -88q124 0 152 133zM781 2292h222l58 -253h-177z" />
    <glyph glyph-name="oacute" unicode="&#xf3;" 
d="M1004 381q-88 -412 -495 -413q-334 0 -334 279q0 60 16 134l255 1200q88 412 494 412q335 0 335 -279q0 -60 -16 -133zM976 1581q5 24 5 44q0 88 -100 89h-2q-122 0 -150 -133l-255 -1200q-5 -25 -5 -45q0 -88 100 -88q124 0 152 133zM1015 2039h-177l166 253h222z" />
    <glyph glyph-name="ocircumflex" unicode="&#xf4;" 
d="M1004 381q-88 -412 -495 -413q-334 0 -334 279q0 60 16 134l255 1200q88 412 494 412q335 0 335 -279q0 -60 -16 -133zM976 1581q5 24 5 44q0 88 -100 89h-2q-122 0 -150 -133l-255 -1200q-5 -25 -5 -45q0 -88 100 -88q124 0 152 133zM976 2159l-116 -119h-211l227 252
h255l121 -252h-211z" />
    <glyph glyph-name="otilde" unicode="&#xf5;" 
d="M1004 381q-88 -412 -495 -413q-334 0 -334 279q0 60 16 134l255 1200q88 412 494 412q335 0 335 -279q0 -60 -16 -133zM976 1581q5 24 5 44q0 88 -100 89h-2q-122 0 -150 -133l-255 -1200q-5 -25 -5 -45q0 -88 100 -88q124 0 152 133zM735 2000l-121 73l50 71
q95 135 204 141h7q67 0 159 -66q44 -32 77 -32q28 0 48 23l55 67l112 -86l-56 -68q-85 -102 -180 -107h-7q-67 0 -157 66q-58 41 -70 43h-4q-28 0 -67 -54z" />
    <glyph glyph-name="odieresis" unicode="&#xf6;" 
d="M1004 381q-88 -412 -495 -413q-334 0 -334 279q0 60 16 134l255 1200q88 412 494 412q335 0 335 -279q0 -60 -16 -133zM976 1581q5 24 5 44q0 88 -100 89h-2q-122 0 -150 -133l-255 -1200q-5 -25 -5 -45q0 -88 100 -88q124 0 152 133zM684 2292h242l-51 -242h-242z
M1080 2292h243l-51 -242h-243z" />
    <glyph glyph-name="divide" unicode="&#xf7;" horiz-adv-x="1045" 
d="M1159 1100l-50 -234h-805l50 234h805zM710 1648h324l-69 -324h-324zM497 644h324l-69 -325h-324z" />
    <glyph glyph-name="oslash" unicode="&#xf8;" horiz-adv-x="1053" 
d="M487 248q25 -29 86 -29q124 0 148 117l132 619zM533 612l417 805q1 6 1 12q0 81 -103 82q-124 0 -149 -118zM1207 1638q34 -56 34 -137q0 -49 -12 -108l-225 -1057q-77 -363 -484 -363q-96 0 -165 20l-167 -320l-137 9l193 372q-65 64 -65 176q0 49 12 106l225 1057
q77 364 483 364q128 0 209 -36l119 231l138 -9z" />
    <glyph glyph-name="ugrave" unicode="&#xf9;" horiz-adv-x="1053" 
d="M1014 381q-88 -412 -495 -413q-334 0 -334 279q0 60 16 134l336 1581h283l-336 -1581q-5 -25 -5 -45q0 -88 100 -88q124 0 152 133l336 1581h283zM791 2292h222l58 -253h-177z" />
    <glyph glyph-name="uacute" unicode="&#xfa;" horiz-adv-x="1053" 
d="M1014 381q-88 -412 -495 -413q-334 0 -334 279q0 60 16 134l336 1581h283l-336 -1581q-5 -25 -5 -45q0 -88 100 -88q124 0 152 133l336 1581h283zM1025 2039h-177l166 253h222z" />
    <glyph glyph-name="ucircumflex" unicode="&#xfb;" horiz-adv-x="1053" 
d="M1014 381q-88 -412 -495 -413q-334 0 -334 279q0 60 16 134l336 1581h283l-336 -1581q-5 -25 -5 -45q0 -88 100 -88q124 0 152 133l336 1581h283zM986 2159l-116 -119h-211l227 252h255l121 -252h-211z" />
    <glyph glyph-name="udieresis" unicode="&#xfc;" horiz-adv-x="1053" 
d="M1014 381q-88 -412 -495 -413q-334 0 -334 279q0 60 16 134l336 1581h283l-336 -1581q-5 -25 -5 -45q0 -88 100 -88q124 0 152 133l336 1581h283zM694 2292h242l-51 -242h-242zM1090 2292h243l-51 -242h-243z" />
    <glyph glyph-name="yacute" unicode="&#xfd;" horiz-adv-x="1066" 
d="M757 1962l-22 -1014l408 1014h300l-658 -1446l-110 -516h-283l110 516l-45 1446h300zM1032 2039h-177l166 253h222z" />
    <glyph glyph-name="thorn" unicode="&#xfe;" horiz-adv-x="1018" 
d="M130 0l417 1962h283l-69 -327h92q6 0 17 -1h19q305 0 305 -272q0 -63 -16 -140l-63 -295q-65 -304 -353 -392q-71 -21 -195 -21h-45l-109 -514h-283zM701 1356l-119 -563h64q59 0 83 9q83 31 103 125l63 295q5 25 5 45q0 89 -100 89h-99z" />
    <glyph glyph-name="ydieresis" unicode="&#xff;" horiz-adv-x="1066" 
d="M757 1962l-22 -1014l408 1014h300l-658 -1446l-110 -516h-283l110 516l-45 1446h300zM701 2292h242l-51 -242h-242zM1097 2292h243l-51 -242h-243z" />
    <glyph glyph-name="dotlessi" unicode="&#x131;" horiz-adv-x="553" 
d="M552 1962h283l-417 -1962h-283z" />
    <glyph glyph-name="circumflex" unicode="&#x2c6;" horiz-adv-x="956" 
d="M931 2159l-116 -119h-211l227 252h255l121 -252h-211z" />
    <glyph glyph-name="caron" unicode="&#x2c7;" horiz-adv-x="956" 
d="M1049 2292h211l-227 -252h-255l-121 252h211l66 -119z" />
    <glyph glyph-name="uni02C9" unicode="&#x2c9;" horiz-adv-x="731" 
d="M609 2253h471l-39 -185h-471z" />
    <glyph glyph-name="breve" unicode="&#x2d8;" horiz-adv-x="1026" 
d="M1353 2292q-123 -268 -405 -268q-302 2 -302 238q0 14 1 30h214q-3 -15 -3 -28q0 -80 119 -80q139 0 162 108h214z" />
    <glyph glyph-name="dotaccent" unicode="&#x2d9;" horiz-adv-x="503" 
d="M617 2292h243l-51 -242h-243z" />
    <glyph glyph-name="ring" unicode="&#x2da;" horiz-adv-x="701" 
d="M1020 2144q0 -31 -8 -70q-47 -221 -268 -221q-181 0 -181 150q0 32 8 71q47 220 267 220q182 0 182 -150zM810 2164q-90 0 -109 -90q-4 -17 -4 -30q0 -61 74 -61q91 0 111 91q3 16 3 28q0 62 -75 62z" />
    <glyph glyph-name="tilde" unicode="&#x2dc;" horiz-adv-x="947" 
d="M692 2000l-121 73l50 71q95 135 204 141h7q67 0 159 -66q44 -32 77 -32q28 0 48 23l55 67l112 -86l-56 -68q-85 -102 -180 -107h-7q-67 0 -157 66q-58 41 -70 43h-4q-28 0 -67 -54z" />
    <glyph glyph-name="hungarumlaut" unicode="&#x2dd;" horiz-adv-x="1024" 
d="M610 2039h-177l166 253h222zM974 2039h-177l166 253h222z" />
    <glyph glyph-name="endash" unicode="&#x2013;" horiz-adv-x="1172" 
d="M229 841l49 233h1060l-49 -233h-1060z" />
    <glyph glyph-name="emdash" unicode="&#x2014;" horiz-adv-x="2048" 
d="M229 841l49 233h1963l-49 -233h-1963z" />
    <glyph glyph-name="quoteleft" unicode="&#x2018;" horiz-adv-x="557" 
d="M759 1311h-350l61 288l184 364h184l-127 -327h117z" />
    <glyph glyph-name="quoteright" unicode="&#x2019;" horiz-adv-x="610" 
d="M547 1963h350l-61 -288l-184 -364h-184l127 327h-117z" />
    <glyph glyph-name="quotesinglbase" unicode="&#x201a;" horiz-adv-x="557" 
d="M189 325h351l-61 -287l-186 -365h-183l128 327h-118z" />
    <glyph glyph-name="quotedblleft" unicode="&#x201c;" horiz-adv-x="1047" 
d="M759 1311h-350l61 288l184 364h184l-127 -327h117zM1249 1311h-350l61 288l184 364h184l-127 -327h117z" />
    <glyph glyph-name="quotedblright" unicode="&#x201d;" horiz-adv-x="1100" 
d="M547 1963h350l-61 -288l-184 -364h-184l127 327h-117zM1037 1963h350l-61 -288l-184 -364h-184l127 327h-117z" />
    <glyph glyph-name="quotedblbase" unicode="&#x201e;" horiz-adv-x="1100" 
d="M199 326h350l-61 -288l-184 -364h-184l127 327h-117zM689 326h350l-61 -288l-184 -364h-184l127 327h-117z" />
    <glyph glyph-name="dagger" unicode="&#x2020;" horiz-adv-x="1454" 
d="M1118 1451l411 54q13 2 25 2q68 0 68 -79q0 -27 -8 -62q-30 -143 -128 -143q-12 0 -24 2l-375 56q-17 -208 -81 -508l-34 -160q-63 -298 -79 -497q-1 -13 -4 -25q-19 -90 -159 -91q-126 0 -126 76q0 11 3 24q2 10 7 22q68 188 127 465q11 51 21 104q8 43 17 85
q62 292 137 501l-410 -54q-13 -2 -25 -2q-68 0 -68 81q0 26 7 60q30 143 128 143q12 0 23 -2l376 -57l32 399q0 14 3 26q19 90 160 90q125 0 125 -75q0 -10 -3 -23q-3 -12 -7 -24z" />
    <glyph glyph-name="daggerdbl" unicode="&#x2021;" horiz-adv-x="1454" 
d="M1257 1839q-91 -254 -108 -332q-4 -17 -4 -26q0 -6 2 -8q3 -4 29 -4q76 0 352 36q13 2 25 2q68 0 68 -81q0 -26 -7 -60q-30 -143 -128 -143q-12 0 -24 2l-376 56l-9 -118q24 -22 24 -54q0 -9 -2 -19q-2 -8 -5 -17q-15 -41 -24 -87q-11 -50 -16 -104q0 -10 -2 -19
q-9 -45 -59 -72l-38 -106l410 53q13 2 25 2q69 0 69 -81q0 -26 -7 -59q-31 -144 -131 -144q-10 0 -22 2l-376 57l-31 -399q-1 -13 -4 -25q-19 -90 -159 -91q-126 0 -126 76q0 11 3 24q2 10 7 22l139 388l-410 -53q-14 -3 -26 -3q-67 0 -67 80q0 26 7 61q31 143 129 143
q11 0 22 -2l377 -56l9 118q-24 22 -24 55q0 9 2 19q2 8 5 17q15 41 24 86q11 50 15 104q0 10 2 19q10 45 60 72l38 107l-410 -54q-13 -2 -25 -2q-67 0 -67 79q0 27 7 62q30 143 128 143q11 0 22 -2l376 -57l32 399q1 14 3 25q20 91 160 91q126 0 126 -76q0 -11 -3 -24
q-3 -10 -7 -22z" />
    <glyph glyph-name="bullet" unicode="&#x2022;" horiz-adv-x="987" 
d="M1015 1240q60 -76 60 -176q0 -39 -9 -81q-32 -150 -161 -257q-129 -106 -280 -106q-150 0 -235 106q-60 77 -60 177q0 38 9 80q32 151 161 257q129 107 279 107q151 0 236 -107z" />
    <glyph glyph-name="ellipsis" unicode="&#x2026;" horiz-adv-x="2048" 
d="M189 325h325l-69 -325h-325zM872 325h325l-69 -325h-325zM1555 325h325l-69 -325h-325z" />
    <glyph glyph-name="guilsinglleft" unicode="&#x2039;" horiz-adv-x="816" 
d="M937 1179l-265 -190l185 -184l-68 -320l-446 517l664 507z" />
    <glyph glyph-name="guilsinglright" unicode="&#x203a;" horiz-adv-x="816" 
d="M451 1509l448 -507l-666 -517l68 320l263 184l-183 190z" />
    <glyph glyph-name="fraction" unicode="&#x2044;" horiz-adv-x="342" 
d="M1032 1963l-1139 -1963h-176l1140 1963h175z" />
    <glyph glyph-name="fraction" unicode="&#x2215;" horiz-adv-x="342" 
d="M1032 1963l-1139 -1963h-176l1140 1963h175z" />
    <glyph glyph-name="franc" unicode="&#x20a3;" horiz-adv-x="963" 
d="M296 596l290 1366h734l-59 -279h-451l-120 -562h388l-59 -280h-388l-52 -245h186l-45 -211h-186l-82 -385h-283l82 385h-119l45 211h119z" />
    <glyph glyph-name="lira" unicode="&#x20a4;" horiz-adv-x="1125" 
d="M515 1235l73 346q88 413 495 413q334 0 334 -279q0 -60 -16 -134l-56 -263h-283l56 263q5 25 5 45q0 88 -100 88h-2q-122 0 -150 -133l-73 -346h332l-34 -159h-332l-34 -158h332l-34 -159h-332l-44 -207q-37 -177 -120 -273h514l-59 -279h-927l59 279h69q123 0 152 134
l73 346h-192l34 159h192l34 158h-192l34 159h192z" />
    <glyph glyph-name="peseta" unicode="&#x20a7;" horiz-adv-x="2175" 
d="M743 1683l-120 -562h58q53 0 75 8q76 31 96 125l62 295q6 28 6 50q0 84 -87 84h-90zM1155 1483l-48 -229q-65 -304 -328 -392q-62 -21 -174 -21h-41l-179 -841h-255l417 1962l371 -1q254 0 269 -232h724l-8 -36q112 64 282 64q342 0 342 -257q0 -49 -12 -107l-49 -232
h-283l49 232q4 20 4 36q0 81 -102 82q-124 0 -149 -118l-33 -156q-2 -11 -2 -23q0 -109 207 -260q189 -137 189 -319q0 -39 -9 -80l-47 -219q-77 -363 -483 -363q-342 0 -342 257q0 48 12 106l50 233h283l-50 -233q-4 -19 -4 -35q0 -82 104 -82q123 0 147 117l42 197
q3 13 3 27q0 117 -205 266q-188 137 -188 321q0 41 9 84l34 162q10 48 26 90h-135l-315 -1483h-283l315 1483h-155z" />
    <glyph glyph-name="Euro" unicode="&#x20ac;" horiz-adv-x="1094" 
d="M430 1219l77 362q88 413 494 413q335 0 335 -279q0 -61 -16 -134l-56 -263h-283l56 263q5 25 5 45q0 88 -100 88h-2q-122 0 -150 -133l-77 -362h382l-33 -158h-382l-34 -160h382l-34 -158h-382l-77 -362q-5 -25 -5 -45q0 -88 100 -88q124 0 152 133l56 264h283l-56 -264
q-88 -412 -495 -412q-334 0 -334 278q0 61 16 134l77 362h-141l34 158h141l34 160h-141l33 158h141z" />
    <glyph glyph-name="uni2116" unicode="&#x2116;" horiz-adv-x="1833" 
d="M547 1962h233l192 -540l115 540h273l-417 -1962h-273l194 912l-165 480l-296 -1392h-273zM1857 677q-60 -281 -365 -281q-253 0 -253 196q0 39 10 85l152 717q60 281 363 281q255 0 255 -196q0 -39 -10 -85zM1797 1394q3 12 3 23q0 56 -78 57q-92 0 -109 -80l-152 -717
q-3 -13 -3 -24q0 -57 77 -57q93 0 110 81zM1115 -6l42 198h584l-42 -198h-584z" />
    <glyph glyph-name="trademark" unicode="&#x2122;" horiz-adv-x="1108" 
d="M794 1729l-24 -112h-119l-143 -673h-128l143 673h-119l24 112h366zM1009 1192l263 538h128l-167 -785h-122l93 440l-202 -440h-87l-19 440l-93 -440h-123l167 785h127z" />
    <glyph glyph-name="partialdiff" unicode="&#x2202;" horiz-adv-x="1053" 
d="M886 1111q20 95 20 178q0 323 -311 454l118 222q476 -150 476 -639q0 -126 -32 -274l-136 -639q-88 -413 -495 -413q-334 0 -334 279q0 60 16 134l77 365q84 392 434 392q106 0 167 -59zM491 413q-5 -24 -5 -44q0 -89 101 -89q123 0 151 133l77 365q6 28 6 51
q0 79 -77 82q-15 1 -28 1q-52 0 -77 -10q-48 -19 -71 -124z" />
    <glyph glyph-name="minus" unicode="&#x2212;" horiz-adv-x="1045" 
d="M1159 1100l-50 -234h-805l50 234h805z" />
    <glyph glyph-name="approxequal" unicode="&#x2248;" horiz-adv-x="1100" 
d="M457 890l-145 109l72 83q132 154 265 154h10q87 -4 201 -106q57 -51 101 -51q31 0 55 24l79 78l130 -124l-79 -78q-114 -114 -228 -114h-12q-87 4 -200 105q-66 60 -82 63q-4 1 -9 1q-34 0 -86 -60zM378 519l-145 109l72 83q132 154 265 154h10q87 -4 201 -106
q57 -51 101 -51q31 0 56 24l78 78l130 -124l-79 -78q-114 -114 -228 -114h-12q-87 4 -200 105q-66 60 -82 63q-4 1 -9 1q-34 0 -86 -60z" />
    <glyph glyph-name="lessequal" unicode="&#x2264;" horiz-adv-x="1047" 
d="M349 1079l903 452l-58 -275l-655 -320l521 -311l-58 -274l-715 437zM975 234l-50 -234h-805l50 234h805z" />
    <glyph glyph-name="greaterequal" unicode="&#x2265;" horiz-adv-x="1047" 
d="M1094 788l-899 -437l58 274l653 311l-519 320l58 275l711 -452zM975 234l-50 -234h-805l50 234h805z" />
    <glyph glyph-name="uniF001" unicode="&#xf001;" horiz-adv-x="1477" 
d="M547 1962h734l-59 -279h-451l-188 -884h388l-60 -280h-388l-110 -519h-283zM1476 1962h283l-417 -1962h-283z" />
    <glyph glyph-name="uniF001" unicode="&#xfb01;" horiz-adv-x="1477" 
d="M547 1962h734l-59 -279h-451l-188 -884h388l-60 -280h-388l-110 -519h-283zM1476 1962h283l-417 -1962h-283z" />
    <glyph glyph-name="uniF002" unicode="&#xf002;" horiz-adv-x="1828" 
d="M547 1962h734l-59 -279h-451l-188 -884h388l-60 -280h-388l-110 -519h-283zM1054 0l417 1962h283l-358 -1683h451l-59 -279h-734z" />
    <glyph glyph-name="uniF002" unicode="&#xfb02;" horiz-adv-x="1828" 
d="M547 1962h734l-59 -279h-451l-188 -884h388l-60 -280h-388l-110 -519h-283zM1054 0l417 1962h283l-358 -1683h451l-59 -279h-734z" />
    <glyph glyph-name="OE" unicode="&#x152;" horiz-adv-x="1370" 
d="M710 0q-88 -32 -201 -32q-334 0 -334 279q0 60 16 134l255 1200q88 412 494 412q112 0 186 -31h651l-59 -279h-444q-3 -47 -15 -102l-166 -782h374l-60 -280h-374l-29 -138q-12 -55 -29 -102h444l-59 -279h-650zM691 307l287 1348q-15 58 -97 59h-2q-122 0 -150 -133
l-255 -1200q-5 -25 -5 -45q0 -88 100 -88q82 0 122 59z" />
    <glyph glyph-name="oe" unicode="&#x153;" horiz-adv-x="1370" 
d="M710 0q-88 -32 -201 -32q-334 0 -334 279q0 60 16 134l255 1200q88 412 494 412q112 0 186 -31h651l-59 -279h-444q-3 -47 -15 -102l-166 -782h374l-60 -280h-374l-29 -138q-12 -55 -29 -102h444l-59 -279h-650zM691 307l287 1348q-15 58 -97 59h-2q-122 0 -150 -133
l-255 -1200q-5 -25 -5 -45q0 -88 100 -88q82 0 122 59z" />
    </font>
</defs>
</svg>
