<svg xmlns="http://www.w3.org/2000/svg" width="39.74" height="22.354" viewBox="0 0 39.74 22.354"><g transform="translate(0 -5)"><g transform="translate(0 5)"><path d="M25.661,14.935a6.316,6.316,0,0,0-1.295.136A11.2,11.2,0,0,0,13.242,5,1.242,1.242,0,0,0,12,6.242v19.87a1.242,1.242,0,0,0,1.242,1.242H25.661a6.209,6.209,0,0,0,0-12.419Z" transform="translate(7.87 -5)"/><path d="M9,7.742V25.128a1.242,1.242,0,0,0,2.484,0V7.742A1.242,1.242,0,0,0,9,7.742Z" transform="translate(5.902 -4.016)"/><path d="M6,10.742V23.161a1.242,1.242,0,0,0,2.484,0V10.742a1.242,1.242,0,1,0-2.484,0Z" transform="translate(3.935 -2.049)"/><path d="M3,23.161a1.242,1.242,0,0,0,2.484,0V10.742a1.242,1.242,0,1,0-2.484,0Z" transform="translate(1.967 -2.049)"/><path d="M1.242,22.435a1.242,1.242,0,0,0,1.242-1.242V13.742a1.242,1.242,0,1,0-2.484,0v7.451A1.242,1.242,0,0,0,1.242,22.435Z" transform="translate(0 -0.081)"/></g></g></svg>