<svg xmlns="http://www.w3.org/2000/svg" width="22.861" height="24.383" viewBox="0 0 22.861 24.383"><g transform="translate(-15.982 0)"><g transform="translate(22.433 5.275)"><path d="M159.646,110.751a7.571,7.571,0,0,0-4.471,1.312,16.327,16.327,0,0,0-3.377,3.225,1.646,1.646,0,0,0-.283.568,2.025,2.025,0,0,0,.9,2.281,1.885,1.885,0,0,0,2.339-.218c.71-.646,1.4-1.334,2.088-2a3.668,3.668,0,0,1,2.557-1.093,3.935,3.935,0,0,1,3.935,2.35,3.843,3.843,0,0,1-.514,4.383c-.482.591-1.029,1.137-1.564,1.695q-1.641,1.673-3.28,3.345a1.584,1.584,0,0,0-.459,1.378,2.007,2.007,0,0,0,1.3,1.727,1.83,1.83,0,0,0,2.077-.427c1.619-1.606,3.246-3.2,4.82-4.842a7.683,7.683,0,0,0,2.109-4.852A8.229,8.229,0,0,0,159.646,110.751Z" transform="translate(-151.436 -110.75)"/></g><g transform="translate(15.982 0)"><g transform="translate(0 0)"><path d="M31.329,11.671a1.865,1.865,0,0,0-2.274.283c-.721.657-1.4,1.334-2.088,2A3.866,3.866,0,0,1,24.4,15.027a4.176,4.176,0,0,1-4.153-5.38,4.816,4.816,0,0,1,1.268-1.934c1.356-1.4,2.733-2.8,4.1-4.2a2.726,2.726,0,0,0,.568-.765,2.008,2.008,0,0,0-.568-2.24A1.868,1.868,0,0,0,23.3.314a3.287,3.287,0,0,0-.579.448c-1.585,1.585-3.2,3.149-4.734,4.788A7.6,7.6,0,0,0,16,10.251a8.263,8.263,0,0,0,8.111,8.842,7.908,7.908,0,0,0,4.5-1.279,17.2,17.2,0,0,0,3.377-3.225,1.792,1.792,0,0,0,.351-.776A2.01,2.01,0,0,0,31.329,11.671Z" transform="translate(-15.982 0)"/></g></g></g></svg>