<svg xmlns="http://www.w3.org/2000/svg" width="30" height="30" viewBox="0 0 30 30"><path d="M15,30A15,15,0,1,0,0,15,15.005,15.005,0,0,0,15,30Zm6.09-7.93h0c-1.009,0-4.2-3.535-13.15-1.7a3.861,3.861,0,0,1-.72.158.993.993,0,0,1-.132-1.973c4.954-1.094,10.016-1,14.334,1.585A1.006,1.006,0,0,1,21.09,22.07ZM22.719,18.1c-.141-.037-.1.086-.746-.254A19.6,19.6,0,0,0,7.541,16.071a2.485,2.485,0,0,1-.72.158A1.23,1.23,0,0,1,6.586,13.8a21.912,21.912,0,0,1,16.621,1.929,1.262,1.262,0,0,1,.684,1.191A1.173,1.173,0,0,1,22.719,18.1ZM5.685,8.747c5.654-1.655,14.21-1.133,19.53,1.972a1.471,1.471,0,0,1-.622,2.775h0a1.392,1.392,0,0,1-.781-.236c-4.3-2.57-12.005-3.186-16.988-1.8a2.911,2.911,0,0,1-.781.156,1.4,1.4,0,0,1-1.409-1.427A1.429,1.429,0,0,1,5.685,8.747Z"/></svg>